<?xml version="1.0" encoding="utf-8"?>
<!-- Generator: Adobe Illustrator 15.1.0, SVG Export Plug-In . SVG Version: 6.00 Build 0)  -->
<!DOCTYPE svg PUBLIC "-//W3C//DTD SVG 1.1//EN" "http://www.w3.org/Graphics/SVG/1.1/DTD/svg11.dtd">
<svg version="1.1" id="Layer_1" xmlns="http://www.w3.org/2000/svg" xmlns:xlink="http://www.w3.org/1999/xlink" x="0px" y="0px"
	 width="650px" height="520px" viewBox="0 0 650 520" enable-background="new 0 0 650 520" xml:space="preserve">
<g>
	<path fill="#5B429A" d="M403.782,122.768c-5.919-4.073-12.951-5.923-19.982-7.405c14.433-1.849,36.633,10.733,40.702,27.755
		c-4.069-1.85-8.506-3.332-12.943-3.332c-10.731,0.372-17.764,7.032-18.507,17.764c-0.746,13.323-2.588,26.276-8.146,38.491
		c-12.944,28.127-34.039,46.26-65.13,51.434c-9.991,1.857-20.351,0.744-30.346-1.107c8.883,0,17.396-1.481,25.537-4.067
		c32.201-9.995,55.505-29.242,64.763-62.546c4.438-16.283,5.176-32.937-1.48-48.847c-6.288-14.804-17.018-25.905-31.828-32.196
		c-0.369-0.372-1.112-0.741-1.85,0c5.549,3.701,10.732,7.401,15.17,12.21c-7.769-3.7-15.539-6.659-24.052-7.4
		c14.431,5.922,28.864,12.582,36.641,28.496c-13.695-10.732-28.128-16.283-45.149-14.804c3.699,0.74,7.4,1.481,10.728,2.963
		c3.7,1.109,7.4,2.591,11.101,5.55c-6.288-1.482-11.837-2.591-17.387-2.591c16.648,6.292,25.532,19.614,31.818,35.896
		c0.375-7.772-2.955-18.132-8.505-27.014c4.068,2.959,7.399,6.291,10.364,10.359c5.541,8.141,8.137,17.395,8.137,27.387
		c0,2.59-0.369,2.959-2.965,2.218c-9.618-2.959-19.236-6.287-27.751-11.841c-5.918-4.068-11.099-9.25-14.8-15.542
		c-6.664-10.364-16.655-13.323-28.128-13.323c-8.51,0-17.022,2.223-25.164,5.923c18.873-1.851,34.787,5.549,49.96,16.281
		c-0.742-3.331-0.742-3.331-3.701-7.399c1.851,0,2.959,1.109,4.068,2.218c4.814,4.441,8.515,9.251,13.696,13.323
		c10.356,8.142,22.579,11.101,35.151,12.214c-5.173,35.9-32.563,61.432-68.829,68.096c-9.25,1.843-18.505,2.211-28.127,1.105
		c-2.219-0.369-3.701,0-4.069,2.963c-0.74,10.732-7.401,17.764-15.915,22.568c-6.291,3.701-12.95,5.558-20.723,6.296
		c3.332-2.965,6.292-5.559,8.513-8.882c2.219-3.332,3.701-6.664,3.328-10.733c0-5.549-0.368-10.732,4.073-14.808
		c0.741-0.736,0.369-1.105-0.373-1.842c-3.328-2.963-4.44-7.032-3.7-11.477c1.114-7.776-0.74-14.8-7.399-19.982
		c18.504,0.369,30.345,10.363,31.827,24.796c0,1.474,0.369,2.586,2.219,2.962c18.873,1.474,35.896-2.593,49.218-16.658
		c11.102-11.468,15.542-25.532,12.956-41.814c-1.481-8.145-6.663-14.436-14.437-17.396c1.85,10.732-1.478,21.833,2.591,32.94
		c-16.651-7.036-24.054-22.949-18.132-39.601c0.741-2.221-0.74-2.221-1.85-2.59c-10.365-4.813-21.095-6.291-32.196-5.55
		c-4.441,0.369-9.25,0.737-13.691,1.109c-5.182,0-8.142-1.85-9.255-5.554c-1.109-4.068,0.373-8.137,4.441-10.731
		c0.372,0,0.372-0.369,0.741-0.369c7.4-2.959,10.732-8.141,12.214-16.282c2.958-13.692,13.323-21.096,26.273-24.055
		c32.195-7.772,59.206,1.109,82.159,24.423c2.956,2.963,5.543,6.664,8.138,9.996c1.106,1.109,1.481,2.219,3.331,0.737
		c2.964-2.218,7.033-1.478,10.732-0.737C399.714,121.654,401.933,122.396,403.782,122.768z"/>
	<path fill="#FFFFFF" d="M290.544,112.036c1.85-0.373,3.7-0.74,5.182-1.113c1.109-0.369,2.218-0.741,1.85-2.219
		c-0.372-1.481-1.481-1.481-2.591-1.481C292.394,107.591,291.653,109.813,290.544,112.036z"/>
	<path fill="#7EC7EE" d="M398.602,185.306c4.437,7.404,5.926,15.173,7.03,22.573c2.596-14.432,1.483-28.864-2.219-42.923
		c4.068,7.399,5.92,15.172,7.4,23.313c5.551,39.969-22.945,82.528-70.311,90.297c-24.054,3.699-46.259-0.738-66.242-15.169
		c0,0,0-0.377,0-0.745c9.62,3.7,19.242,4.813,29.234,5.183c27.386,0.735,51.81-6.664,72.906-24.059
		C393.426,228.974,400.827,209.361,398.602,185.306z"/>
	<path fill="#7DD1F5" d="M387.5,242.302c-13.326,10.73-27.758,19.973-44.032,25.9C360.854,264.134,376.4,257.102,387.5,242.302z"/>
	<path fill="#5B429A" d="M392.306,198.261c-0.737,18.132-8.874,31.451-21.833,42.183c-19.605,16.291-42.184,22.954-67.72,19.991
		c-7.769-1.113-15.541-2.595-22.942-5.927c2.591,0.369,5.182,0.745,8.142,0.745c25.532,2.219,49.588-2.219,71.42-16.65
		c14.432-9.627,25.164-22.208,31.827-38.122C391.2,199.742,391.568,199.373,392.306,198.261z"/>
	<path fill="#94D8EB" d="M286.471,223.056c-3.332-4.444-5.918-8.513-9.25-12.581c-7.772-9.627-17.396-16.291-29.977-17.396
		c-8.511-0.736-16.283,1.106-23.314,6.664c4.813-10.363,21.835-17.026,35.527-14.063
		C276.111,189.747,284.252,204.917,286.471,223.056z"/>
	<path fill="#94D8EB" d="M316.817,210.843c-2.219-6.294-5.55-9.251-10.359-9.627c-5.182-0.368-9.623,2.964-12.214,9.259
		c-2.223-4.814-1.109-11.102,2.96-14.433c3.7-3.332,9.991-3.7,14.803-0.745C316.817,198.261,318.667,203.811,316.817,210.843z"/>
	<path fill="#94D8EB" d="M287.212,190.488c-4.44-9.991-8.141-19.242-14.805-26.646C283.139,166.065,287.581,176.428,287.212,190.488
		z"/>
	<path fill="#94D8EB" d="M269.448,177.538c-2.591-1.482-5.55-1.482-8.141-1.85c-2.591-0.373-4.442-1.482-5.182-4.441
		c-0.369-2.59,0.372-4.44,2.59-5.55c2.591-1.482,7.032,0.369,6.292,2.959C264.267,173.096,266.857,175.314,269.448,177.538z"/>
	<path fill="#94D8EB" d="M245.394,167.174c1.481,0.373,2.959,0.741,2.59,2.591c-0.368,1.481-1.109,2.959-2.959,2.959
		c-1.481,0-2.591-1.11-2.591-2.959C242.802,168.283,243.543,167.174,245.394,167.174z"/>
</g>
<g>
	<text transform="matrix(1 0 0 1 83.7261 381.0498)" fill="#94D8EB" font-family="'JavaneseText'" font-size="82.4236">LOGO TEXT</text>
</g>
<g>
	<text transform="matrix(1 0 0 1 185.9775 422.0986)" fill="#5B429A" font-family="'NirmalaUI-Semilight'" font-size="42.4774">TAG LINE HERE</text>
</g>
</svg>
