<?xml version="1.0" encoding="utf-8"?>
<!-- Generator: Adobe Illustrator 22.1.0, SVG Export Plug-In . SVG Version: 6.00 Build 0)  -->
<svg version="1.1" id="Layer_1" xmlns="http://www.w3.org/2000/svg" xmlns:xlink="http://www.w3.org/1999/xlink" x="0px" y="0px"
	 viewBox="0 0 650 520" style="enable-background:new 0 0 650 520;" xml:space="preserve">
<style type="text/css">
	.st0{fill:none;}
	.st1{fill:#57684F;}
	.st2{font-family:'PalatinoLinotype-Roman';}
	.st3{font-size:43.3606px;}
	.st4{fill:#F08821;}
	.st5{font-size:29.6461px;}
</style>
<path class="st0" d="M66.9,53.5v413h516.3v-413H66.9z"/>
<text transform="matrix(1 0 0 1 137.0019 380.8578)" class="st1 st2 st3">LOGO TEXT HERE</text>
<text transform="matrix(1 0 0 1 210.8454 415.8329)" class="st4 st2 st5">TAG LINE HERE</text>
<path class="st1" d="M419.5,273.9c-12.5,0.9-24.1,3.9-35.8,9c-10.4,4.3-19.4,10.4-28.9,16c-20.3,12.1-41.8,19.8-65.9,19.8
	c-23.3,0-44.4-6.5-61.2-22.8c-12.5-12.1-19.4-27.2-18.5-45.2c0.9-20.3,15.5-36.6,34.9-39.2c9-1.3,17.2,0.9,24.1,6.5
	c1.7,1.7,3,3,2.6,6c-0.4,4.3,0,8.6,0,13.4c-2.2-2.6-3.5-4.7-5.2-6.5c-6-5.2-12.5-6.9-20.3-4.3c-7.3,2.1-11.6,9.9-9.9,17.2
	c1.7,8.2,6.5,14.2,13.4,19c14.2,9.1,29.7,10.8,46.1,9.9c16.8-0.9,33.2-5.2,49.1-9.9c15.5-4.3,31-6.5,47-4.3c7.8,0.9,15.1,3,22,6.9
	c-23.3-3.4-44,5.6-64.7,13.8c-16.4,6.5-33.2,12.5-51.3,13.8c-18.1,1.3-35.8-0.4-52.1-9c-0.9-0.4-1.7-1.3-3-0.4
	c8.2,7.3,17.7,12.5,28.4,15.5c19.4,5.6,37.9,3,56.9-2.6c14.7-4.3,28-10.8,42.2-16.4c13.4-5.2,26.7-9,41.4-7.8
	C413.5,272.2,416.5,272.6,419.5,273.9z M384.2,306.7c9.5-3,19-6.5,28.9-8.2c15.1-3,29.3-0.9,41.8,8.6c-3-4.7-6.5-9.5-10.8-12.9
	c-12.5-9.9-26.7-11.6-41.8-7.8c-19,4.7-34.5,16.4-50,27.1C363.5,312.3,373.8,309.7,384.2,306.7z"/>
<path class="st4" d="M416,259.7c6-9.5,5.2-19-1.3-27.6c-6-7.8-16.8-10.3-25.4-5.6c-9,5.2-9.5,15.1-1.7,24.1
	c-4.3-0.9-8.6-1.7-12.9-2.1c-1.7-0.4-2.1-0.9-2.1-2.6c0-7.8,0-15.5,0-23.3c0-1.3,0.4-2.2,1.3-3.4c12.9-13.8,36.2-14.2,47.8,1.7
	C430.7,233,428.1,250.2,416,259.7z M304.4,115.3c3,0,5.2-0.9,7.3-2.6c6-4.3,13.4-3.9,19.4,0.4c0.9,0.4,1.7,1.7,3,1.7
	c5.2,0,9.9,1.3,15.1,3c-3-9.9-7.8-17.7-15.9-23.3c-6.9-4.7-14.7-5.2-22-1.3c-9.1,5.2-14.2,13.4-17.7,24.1
	C297.9,115.7,301.4,114.9,304.4,115.3z M307,249.4c0,2.6,0.4,5.2,0,8.2c0,2.6,0.9,3,3,2.6c5.2-0.9,10.8-2.2,15.9-3.5
	c10.3-2.6,10.3-2.6,10.3-13.4c0-4.3-2.1-6.5-5.6-7.3c-5.2-1.3-10.3-1.3-15.5-0.4c-7.3,0.9-8.2,2.2-8.2,9.5
	C307,246.3,307,248.1,307,249.4L307,249.4z M336.3,218.3c0-4.3-1.7-6.9-6-7.8c-6-1.3-12.1-0.9-18.1,0.4c-3,0.9-5.2,3-5.2,6.5
	c0,4.3,0.4,8.6,0.4,12.9c0,1.7,0.4,1.7,2.1,1.3c8.6-2.6,17.7-2.2,26.7,0.4C336.3,227.4,336.3,223.1,336.3,218.3z M336.3,199.4
	c0-1.3,0-3,0-4.3c-0.4-6-2.2-8.2-7.8-9.1c-5.2-0.9-10.3-0.9-15.5,0.4c-4.3,1.3-6,3-6,7.8c-0.4,3.5,0,7.3,0,10.8c0,2.6,0.9,3,3,2.2
	c6-1.7,12.1-2.2,18.1-1.3c2.6,0.4,5.6,3,7.3,1.3C336.7,205.8,336.3,201.9,336.3,199.4L336.3,199.4z M336.3,183.4c0-3,0-6,0-8.6
	c0-1.3,0-2.6,0-3.9c0-4.7-1.7-6.9-6.5-8.2c-5.6-1.3-10.8-1.3-16.4,0c-4.3,0.9-6.5,3.5-6.5,7.8c-0.4,4.3-0.4,8.6,0.4,13.4
	C316.9,180,326.4,180.4,336.3,183.4z M335.9,146.8c0-4.3-1.7-6.9-6-7.8c-5.6-1.3-11.6-0.9-17.2,0.4c-3.5,0.9-5.6,3-5.6,6.9
	c0,3.9,0,7.8,0,11.6c0,2.2,0.9,1.7,2.6,1.3c8.6-3.5,17.2-3,26.3,0.4C335.9,155,335.9,150.7,335.9,146.8z M302.7,249.8
	c0-2.6,0-5.6-0.4-9.1c0-1.3-0.4-2.1-2.1-2.1c-6.5,0.4-12.9,1.3-19,3.5c-3,1.3-4.3,3-3.9,6.5c0,3,0,6.5,0,9.9c0,2.2,0.9,3,3,3
	c5.6,0.4,11.6-0.4,17.2-0.4c4.3,0,6-1.7,5.2-6C302.2,253.2,302.7,251.5,302.7,249.8L302.7,249.8z M340.6,177.8c0,2.2,0,3.9,0,5.2
	c-0.4,3.9,1.3,5.2,4.7,5.2c6,0,11.6,1.3,16.8,3.9c2.2,0.9,2.6,0.4,2.6-1.7c0-3.9,0-8.2,0-12.1c0-3-1.3-5.2-3.9-6.5
	c-5.6-3-11.6-3.9-18.1-4.7c-1.7,0-2.1,0.9-2.1,2.2C340.6,172.2,340.6,174.8,340.6,177.8L340.6,177.8z M365.2,207.6
	c0.4-0.9,0.4-1.7-0.4-3c0.4-6.5,0-6.9-6.5-9.5c-4.7-1.7-9.9-2.6-15.1-3c-2.6-0.4-3,0.4-3,3c0,4.3,0.4,9,0,13.4
	c-0.4,3,0.9,3.9,3.5,3.9c6.5,0,12.9,0.4,19,3.4c2.2,1.3,2.6,0.4,2.6-1.7C365.2,211.9,365.2,209.7,365.2,207.6
	C365.6,207.6,365.6,207.6,365.2,207.6z M334.1,122.6c-1.3-5.2-6-8.6-12.1-8.6c-6,0-11.2,3.4-12.5,8.6c-0.9,3.5-1.3,7.3-1.3,10.8
	c0,1.7,0.4,2.2,2.6,1.7c6.9-1.7,14.2-2.2,21.1,0c2.6,0.9,3-0.4,3-2.6c0-0.9,0-1.7,0-3.5C335,127.8,334.6,125.2,334.1,122.6z
	 M340.6,232.1c0,2.6,0.9,3.4,3.5,3.4c6.5,0,12.9,0.9,19,3.5c2.1,0.9,3,0.9,3-1.7c-0.4-3.9-0.4-8.2,0-12.1c0-2.6-0.9-4.3-3-5.2
	c-3.9-2.2-8.2-3-12.5-3.5c-9.9-0.9-9.9-0.9-9.9,8.6C340.6,227.4,340.6,229.5,340.6,232.1z M299.7,234.7c2.1,0,2.6-0.9,2.6-2.6
	c0-4.7,0-9.5,0-14.2c0-1.3,0-2.6-1.7-2.6c-6.9,0.4-13.8,0.9-20.3,4.3c-1.3,0.9-2.6,2.2-2.6,3.9c0,4.7,0,9.9,0,15.5
	C285.4,236.4,292.8,234.7,299.7,234.7z M303.1,170.1c0-1.7-0.4-2.2-2.2-2.2c-5.6,0.4-11.2,1.3-16.4,3.5c-3.5,1.3-5.6,3.9-5.2,7.8
	c0,3.9,0,7.3,0,11.2c0,2.2,0.4,2.6,2.6,1.7c3.5-1.3,7.3-2.6,11.2-3c3-0.4,7.3,0.4,9-1.7c1.7-2.2,0.4-6,0.4-8.6
	C302.7,175.2,302.7,172.2,303.1,170.1z M298.8,211.4c2.6,0,3.5-0.4,3.5-3c0-4.7,0-9.5,0-14.2c0-1.3,0-2.6-1.7-2.6
	c-6.9,0.4-14.2,1.3-20.3,5.2c-1.7,0.9-2.6,2.2-2.6,4.3c0,5.2,0,9.9,0,15.5C285.4,212.7,292.3,211.9,298.8,211.4z M360.9,153.7
	c0-3-1.3-5.6-4.3-6.9c-3.9-2.2-8.6-3-13.4-3.4c-2.2,0-2.6,0.4-2.6,2.6c0,4.7,0,9.9,0,15.1c0,2.2,0.9,3,3,3c5.6,0,11.6,1.3,17.2,3.9
	C360.9,162.7,360.9,158,360.9,153.7z M300.5,163.6c2.1,0,2.1-1.3,2.1-2.6c0-5.2,0-10.3,0-15.5c0-1.7-0.4-3-2.6-2.6
	c-3.9,0.4-7.8,0.9-11.6,2.6c-3,1.3-6,3-6,6.5c0,5.2,0,10.3,0,15.9C288.5,165.7,294.5,164,300.5,163.6z M222.9,176.9
	c0,6.9,5.6,12.5,12.5,12.5c6.5,0,12.1-5.6,12.1-12.5c0-6.9-5.6-12.5-12.1-12.5C228.6,164.4,222.9,170.1,222.9,176.9z M235,182.6
	c-2.6,0-5.2-3-5.2-5.6c0.4-3,2.2-4.7,5.2-5.2c3-0.4,5.6,2.2,5.6,5.2C240.6,180,238,182.6,235,182.6z M247.5,123.1
	c-6.9,0-12.5,5.6-12.5,12.1c0.4,6.9,5.6,12.5,12.5,12.5c6.5,0,12.5-5.6,12.5-12.1C260,128.7,254,122.6,247.5,123.1z M253.1,135.6
	c-0.4,2.6-3,5.6-5.6,5.2c-3-0.4-5.2-2.2-5.2-5.2c0-3,2.2-5.6,5.2-5.6C250.5,130,252.7,132.6,253.1,135.6z M396.6,177.8
	c-0.4,6.9,5.2,12.5,11.6,12.5c6.9,0,12.9-5.2,12.9-12.1c0-6.9-5.2-12.1-12.1-12.1C401.8,166.2,396.6,170.9,396.6,177.8z
	 M413.4,177.8c0,3-2.6,5.6-5.2,5.6c-2.6,0-5.2-3-5.2-5.6c0-2.6,3-5.2,5.6-5.2C411.7,173.1,413.9,175.2,413.4,177.8z M408.7,138.6
	c0-6.5-5.6-12.1-12.1-12.1c-6.9,0-12.5,5.2-12.5,12.1c0,6.9,5.2,12.5,12.1,12.5C403.1,151.5,408.7,145.5,408.7,138.6z M397.1,134.3
	c2.6-0.4,5.2,2.2,5.2,5.2c-0.4,3-2.1,4.7-5.2,5.2c-2.6,0-5.6-2.6-5.6-6C391.5,136,393.2,133.8,397.1,134.3z M339.3,136.4
	c0,1.3,0,3,2.2,3c4.7,0.4,9.9,1.3,14.7,3.5c0.4-3-0.4-6-0.4-8.6c-0.9-11.2-3.5-14.2-14.7-15.5c-1.3,0-2.6-0.4-4.8-0.4
	C338.9,124.4,338.9,130.4,339.3,136.4z M301,139.9c1.7,0,2.6-0.9,2.6-2.6c0.9-6.5,0.4-12.9,3.4-19.4c-5.2,0.9-9,1.3-12.9,3
	c-3,1.3-5.2,3.5-5.6,6.9c-0.9,4.7-1.3,9.5-1.3,15.1C291.9,140.7,296.2,139.9,301,139.9z M268.6,259.7c1.3,0.4,1.7-0.4,1.7-1.7
	c0-3.9,0-8.2,0-12.1c0-2.1-1.3-1.7-2.6-1.3c-10.3,3.9-15.9,2.6-22.8-6C245.8,250.2,257,258,268.6,259.7z M340.6,248.1
	c-0.9,3.5,0.4,4.3,3.9,3.5c6-1.3,12.5-2.2,18.5-3c3-0.4,3-1.7,2.1-3.4c-0.4-1.7-1.7-2.6-3.4-3c-4.7-1.7-9.5-2.6-14.2-3
	c-6.9-0.4-6.9-0.4-6.9,6.5C340.6,246.3,340.6,247.2,340.6,248.1z"/>
</svg>
